<svg viewBox="-1.6 -1.6 19.20 19.20" xmlns="http://www.w3.org/2000/svg" fill="#000000"><g id="SVGRepo_bgCarrier" stroke-width="0"></g><g id="SVGRepo_tracerCarrier" stroke-linecap="round" stroke-linejoin="round"></g><g id="SVGRepo_iconCarrier"> <path fill-rule="evenodd" clip-rule="evenodd" d="M4 0a4 4 0 00-4 4v8a4 4 0 004 4h8a4 4 0 004-4V4a4 4 0 00-4-4H4zm1 4a1 1 0 00-1 1v6a1 1 0 001 1h4a1 1 0 001-1V5a1 1 0 00-1-1H5zm7.67 3.048a1 1 0 00-.386-1.234L11 5v6l1.67-3.952z" fill="#fafafa"></path> </g></svg>